PathFileType	4	(X/Y/Z)	T1_P2_NoVision_Movement_1_0-729.trc
DataRate	CameraRate	NumFrames	NumMarkers	Units	OrigDataRate	OrigDataStartFrame	OrigNumFrames
60	60	4	27	m	60	0	729
Frame#	Time	RHip			RKnee			RAnkle			RBigToe			RSmallToe			RHeel			LHip			LKnee			LAnkle			LBigToe			LSmallToe			LHeel			Neck			Head			Nose			RShoulder			RElbow			RWrist			RThumb			RIndex			RPinky			LShoulder			LElbow			LWrist			LThumb			LIndex			LPinky		
		X1	Y1	Z1	X2	Y2	Z2	X3	Y3	Z3	X4	Y4	Z4	X5	Y5	Z5	X6	Y6	Z6	X7	Y7	Z7	X8	Y8	Z8	X9	Y9	Z9	X10	Y10	Z10	X11	Y11	Z11	X12	Y12	Z12	X13	Y13	Z13	X14	Y14	Z14	X15	Y15	Z15	X16	Y16	Z16	X17	Y17	Z17	X18	Y18	Z18	X19	Y19	Z19	X20	Y20	Z20	X21	Y21	Z21	X22	Y22	Z22	X23	Y23	Z23	X24	Y24	Z24	X25	Y25	Z25	X26	Y26	Z26	X27	Y27	Z27
1	0.016666666666666666	462.4887866096753	3622.487220493447	540.4243726119155	884.2110578014699	3726.1309209555266	589.5950619606393	1241.7589590065616	3706.4896901229185	615.6340125717226	1333.4011688957992	3628.1197633144043	612.6083101392555	1309.5485422912252	3638.0166422955626	548.5721073553021	1278.5847816600008	3704.16846429998	631.9490533745412	463.34211267644673	3506.1735695566913	733.0730831082233	883.9989008397648	3571.297386214295	756.3149106217539	1229.0558849879103	3593.473472509287	737.0749173136892	1324.580371275105	3552.395142474847	692.6682876677764	1285.3809483408845	3476.852832050403	722.8736610484384	1270.9201535024174	3620.359887177975	731.3545995567894	-102.72829896632571	3574.943913502289	671.5912479179794	-356.0378860832101	3453.895949847737	613.2557316561761	-189.83492154178913	3407.4596994565863	589.6889259411399	-40.0248670313691	3661.3828577186064	548.9608247691739	190.20420851104728	3730.4191316034776	474.9575107385939	417.2928524268469	3669.4234967862794	419.6172657960585	525.2665314487817	3566.5004570143706	415.7989306556927	537.0576116295368	3567.1054919671656	398.9387017458412	547.6972248095199	3669.6414089292707	403.3953184167886	-12.664958659919453	3541.995613847921	844.7363046571445	253.09148819890117	3469.5485911380415	855.4207039331208	491.1923105482319	3434.9968029595543	831.5815977634437	601.088615508477	3450.7270490862047	816.9198408807702	609.9762235394597	3429.506621364567	817.2767940106975	613.7478596637555	3428.0105610700916	850.9543684879607
2	0.03333333333333333	458.92525791087894	3628.006395846823	543.2271651564489	883.2767806942796	3743.3099197027577	594.0122337632803	1232.9131893529513	3709.0943098094012	617.910418483505	1331.2193403102817	3634.0853071742176	616.118247258178	1317.4902449642586	3654.3802935826648	561.531483614534	1273.583540645316	3715.2986972234376	637.6798070724697	468.3303303865911	3508.21581957151	734.4415842346907	877.9828694428684	3550.4162090274003	749.7496347252186	1226.628346952719	3598.509747490484	739.8703160644521	1325.9301526547056	3560.11232798727	685.5257030436576	1280.0839967432858	3475.4734179534576	721.3008139204593	1270.624645136014	3620.7503819153935	731.4478715183532	-97.55672498802011	3570.906155750778	669.3196302958058	-354.40639168526224	3434.6428263390267	607.8119513463605	-185.69671768072894	3398.393319909362	579.9381482828876	-39.999014872351275	3661.765978334545	549.1661966316258	191.66076833053566	3751.3587435879062	479.6300870844926	417.256965024156	3669.534180147177	419.70713330528434	524.9806995706905	3566.693651955686	415.7569505750608	528.6712200355123	3568.470266158252	400.23191229756173	544.1707374724783	3674.144824576017	405.4728758157978	-12.73358380095662	3539.603154526781	848.4832691013239	253.0044323154513	3469.707692404294	855.5850292864121	494.3549584682161	3448.94588595634	845.0525413769515	593.8547929773204	3453.6321254274717	818.6554687380634	609.769585954989	3430.1735744733273	818.1504256530242	613.48108182814	3427.3002820564443	850.580387528936
3	0.05	459.15117824074485	3628.3497951511767	543.4214595786044	889.8982802298506	3748.2372533681	595.5674953725315	1241.85066957938	3707.5415843556466	616.0882082318767	1325.9076562913922	3607.718332060312	607.4732642877059	1309.6752508602433	3638.184831829427	548.7355406200892	1273.6946309504292	3712.767174514948	641.7338497760686	468.42008601363364	3508.1986628131413	734.4831444900624	883.659503028005	3571.257378300199	756.242823584059	1229.0356430240429	3593.4736401047685	737.0472606666766	1331.9956253115347	3563.7414118758647	686.2634187563958	1285.4011236127835	3476.87623669876	722.6635357415161	1271.018554848944	3620.5071144362755	731.4214234494749	-102.5211820492478	3575.451377956832	671.843593670056	-354.5058972978935	3434.906781695689	608.0627668893518	-189.62414108786658	3409.293920686532	590.7032296975001	-35.48668958165079	3665.462133491861	550.4415248497567	191.8247346361871	3751.548340201125	479.7497628263051	417.29283554327446	3669.5056146073807	419.7199227431522	524.942968679307	3566.4902036309686	415.89235117584457	528.5367817209212	3568.121688134889	400.3094737937249	544.134603524605	3674.0006835535755	405.53114351367213	-12.730910103563314	3542.1334662432146	844.895224901452	252.95222143979186	3469.6032213021476	855.507144753832	494.38635689807444	3448.809555580017	845.0352165491139	596.8640629910248	3449.6259499974417	816.2705148977426	609.8433288636201	3429.506885961409	818.0761871798887	613.5241621734194	3427.1891833904847	850.674717143157
4	0.06666666666666667	458.9103823160608	3628.011564263832	543.2303056457146	889.9127926245944	3748.3028813910873	595.6685391437292	1247.8324464625944	3709.0320743904185	617.4676790526266	1325.6932836234519	3607.3430044361003	607.1837688518801	1302.0111532083242	3617.368734323743	543.1325047318818	1276.2567373646586	3710.0175374838586	634.8621287938319	468.35707787030566	3508.0847088936443	734.4390555858697	883.6143701029448	3570.973998732786	756.2341076417024	1235.4649015687962	3597.404227022353	737.8107402778458	1331.4261958843576	3560.5700611731413	689.9402609351918	1285.5775431215634	3477.052153661527	722.7827047443288	1273.2517587997659	3615.876528617793	728.8908605578849	-101.75245201902666	3569.0967535953637	668.5621041079419	-354.4233428713039	3434.6575426735294	607.6807433645104	-189.79963101163978	3394.218497848802	578.068657388326	-35.482702099536695	3665.561059332594	550.5543663414289	190.33740818120967	3730.6315431106345	475.0363688281863	417.325687817214	3669.4354043859144	419.76868565197316	525.3529028962548	3565.9937814359173	415.8512785912755	532.2595838830722	3563.1922540466103	398.1892243306452	544.5037356599988	3649.81397025701	399.7948111855834	-12.66345277951217	3541.9913753459455	844.7974327381582	253.03425628846324	3469.581546251221	855.4926367283346	494.3771774557036	3448.8718630950225	845.0726567672469	596.8822103640757	3449.4483852481485	816.1780398801698	609.8929680061299	3429.253567286901	817.8431818081908	613.5543889188122	3426.994244134387	850.5625310977664
